<svg xmlns="http://www.w3.org/2000/svg" xmlns:xlink="http://www.w3.org/1999/xlink" xmlns:lucid="lucid" width="8873.05" height="3520.94"><g transform="translate(-320 500)" lucid:page-tab-id="0_0"><path d="M2654.33-259.53c0 121.77-124.1 220.47-277.16 220.47-153.08 0-277.17-98.7-277.17-220.47C2100-381.3 2224.1-480 2377.17-480c153.07 0 277.16 98.7 277.16 220.47z" stroke="#5e5e5e" stroke-width="3" fill="#fff"/><use xlink:href="#a" transform="matrix(1,0,0,1,2105,-475) translate(96.8105555555556 131.23784722222223)"/><use xlink:href="#b" transform="matrix(1,0,0,1,2105,-475) translate(193.24882716049385 131.23784722222223)"/><use xlink:href="#c" transform="matrix(1,0,0,1,2105,-475) translate(319.17475308641974 131.23784722222223)"/><use xlink:href="#d" transform="matrix(1,0,0,1,2105,-475) translate(373.74265432098764 131.23784722222223)"/><use xlink:href="#e" transform="matrix(1,0,0,1,2105,-475) translate(119.55746913580252 176.57118055555554)"/><use xlink:href="#f" transform="matrix(1,0,0,1,2105,-475) translate(197.00191358024693 176.57118055555554)"/><use xlink:href="#g" transform="matrix(1,0,0,1,2105,-475) translate(351.99574074074076 176.57118055555554)"/><use xlink:href="#h" transform="matrix(1,0,0,1,2105,-475) translate(85.91975308641983 221.90451388888886)"/><use xlink:href="#i" transform="matrix(1,0,0,1,2105,-475) translate(284.98765432098764 221.90451388888886)"/><use xlink:href="#j" transform="matrix(1,0,0,1,2105,-475) translate(385.62345679012344 221.90451388888886)"/><use xlink:href="#k" transform="matrix(1,0,0,1,2105,-475) translate(36.52351851851862 267.2378472222222)"/><use xlink:href="#l" transform="matrix(1,0,0,1,2105,-475) translate(195.609938271605 267.2378472222222)"/><use xlink:href="#m" transform="matrix(1,0,0,1,2105,-475) translate(258.5729012345679 267.2378472222222)"/><use xlink:href="#n" transform="matrix(1,0,0,1,2105,-475) translate(455.01734567901224 267.2378472222222)"/><use xlink:href="#o" transform="matrix(1,0,0,1,2105,-475) translate(158.04203703703706 312.5711805555555)"/><use xlink:href="#p" transform="matrix(1,0,0,1,2105,-475) translate(331.40006172839503 312.5711805555555)"/><path d="M1122.15-254.53H623.83l-1.1.3-.27.27-.3 1.1v215.9h-10v-217.23l1.35-4.95 4.04-4.04 4.96-1.33h499.65zm971.35 0h-758v-10h758z" fill="#5e5e5e"/><path d="M2098.5-259.54l.04 3.8.05 1.2h-5.23v-10h5.23zM617.17-17.68l-4.64-14.27h9.27z" fill="#5e5e5e"/><path d="M617.17-1.5l-11.52-35.45h23.03z" fill="#5e5e5e"/><use xlink:href="#q" transform="matrix(1,0,0,1,1122.1522309069478,-323.5275590551181) translate(0 85.33333333333334)"/><path d="M4296.8-263.2l4.02 4.05 1.35 4.96v217.25h-10v-215.9l-.3-1.1-.27-.28-1.1-.3h-605.14v-10h606.47zm-1635.97 8.67v-10h864.83v10z" fill="#5e5e5e"/><path d="M2660.96-254.53h-5.23l.1-5-.04-3.78-.06-1.23h5.22zM4297.17-17.68l-4.64-14.27h9.27z" fill="#5e5e5e"/><path d="M4297.17-1.5l-11.52-35.45h23.03z" fill="#5e5e5e"/><use xlink:href="#r" transform="matrix(1,0,0,1,3525.6599594046656,-323.5275590551181) translate(0 85.33333333333334)"/><path d="M4574.33 220.47c0 121.77-124.1 220.47-277.16 220.47-153.08 0-277.17-98.7-277.17-220.47C4020 98.7 4144.1 0 4297.17 0c153.07 0 277.16 98.7 277.16 220.47z" stroke="#5e5e5e" stroke-width="3" fill="#fff"/><use xlink:href="#s" transform="matrix(1,0,0,1,4025,5) translate(116.1037654320988 156.39756944444443)"/><use xlink:href="#t" transform="matrix(1,0,0,1,4025,5) translate(206.8691975308642 156.39756944444443)"/><use xlink:href="#u" transform="matrix(1,0,0,1,4025,5) translate(307.4124074074074 156.39756944444443)"/><use xlink:href="#v" transform="matrix(1,0,0,1,4025,5) translate(358.7704320987654 156.39756944444443)"/><use xlink:href="#w" transform="matrix(1,0,0,1,4025,5) translate(128.55438271604942 199.0642361111111)"/><use xlink:href="#x" transform="matrix(1,0,0,1,4025,5) translate(201.4432716049383 199.0642361111111)"/><use xlink:href="#y" transform="matrix(1,0,0,1,4025,5) translate(347.3198148148148 199.0642361111111)"/><use xlink:href="#z" transform="matrix(1,0,0,1,4025,5) translate(96.89506172839509 241.73090277777774)"/><use xlink:href="#A" transform="matrix(1,0,0,1,4025,5) translate(284.25308641975306 241.73090277777774)"/><use xlink:href="#B" transform="matrix(1,0,0,1,4025,5) translate(378.9691358024691 241.73090277777774)"/><use xlink:href="#C" transform="matrix(1,0,0,1,4025,5) translate(37.24574074074086 284.3975694444444)"/><use xlink:href="#D" transform="matrix(1,0,0,1,4025,5) translate(233.9864814814815 284.3975694444444)"/><use xlink:href="#E" transform="matrix(1,0,0,1,4025,5) translate(293.24574074074076 284.3975694444444)"/><use xlink:href="#F" transform="matrix(1,0,0,1,4025,5) translate(456.40623456790115 284.3975694444444)"/><path d="M2592.15 225.47h-728.32l-1.1.3-.27.27-.3 1.1v435.9h-10V225.82l1.35-4.95 4.04-4.04 4.96-1.33h729.65zm1421.35 0h-1208v-10h1208z" fill="#5e5e5e"/><path d="M4018.5 220.46l.04 3.8.05 1.2h-5.23v-10h5.23zM1857.17 682.32l-4.64-14.27h9.27z" fill="#5e5e5e"/><path d="M1857.17 698.5l-11.52-35.45h23.03z" fill="#5e5e5e"/><use xlink:href="#q" transform="matrix(1,0,0,1,2592.1522309069483,156.47244094488184) translate(0 85.33333333333334)"/><path d="M6024.62 216.8l4.04 4.05 1.34 4.96v437.25h-10v-435.9l-.3-1.1-.26-.28-1.1-.3h-399.06v-10h400.38zm-1443.8 8.67v-10h878.76v10z" fill="#5e5e5e"/><path d="M4580.96 225.47h-5.23l.1-5-.04-3.78-.06-1.23h5.22zM6025 682.32l-4.64-14.27h9.28z" fill="#5e5e5e"/><path d="M6025 698.5l-11.52-35.45h23.04z" fill="#5e5e5e"/><use xlink:href="#r" transform="matrix(1,0,0,1,5459.577282238357,156.47244094488184) translate(0 85.33333333333334)"/><path d="M2134.33 920.47c0 121.77-124.1 220.47-277.16 220.47-153.08 0-277.17-98.7-277.17-220.47C1580 798.7 1704.1 700 1857.17 700c153.07 0 277.16 98.7 277.16 220.47z" stroke="#5e5e5e" stroke-width="3" fill="#fff"/><use xlink:href="#s" transform="matrix(1,0,0,1,1585,705) translate(107.11611111111115 156.39756944444443)"/><use xlink:href="#G" transform="matrix(1,0,0,1,1585,705) translate(197.88154320987655 156.39756944444443)"/><use xlink:href="#u" transform="matrix(1,0,0,1,1585,705) translate(316.40006172839503 156.39756944444443)"/><use xlink:href="#H" transform="matrix(1,0,0,1,1585,705) translate(367.75808641975306 156.39756944444443)"/><use xlink:href="#w" transform="matrix(1,0,0,1,1585,705) translate(118.6778395061729 199.0642361111111)"/><use xlink:href="#x" transform="matrix(1,0,0,1,1585,705) translate(191.56672839506177 199.0642361111111)"/><use xlink:href="#I" transform="matrix(1,0,0,1,1585,705) translate(337.4432716049382 199.0642361111111)"/><use xlink:href="#z" transform="matrix(1,0,0,1,1585,705) translate(87.01851851851856 241.73090277777774)"/><use xlink:href="#A" transform="matrix(1,0,0,1,1585,705) translate(274.37654320987656 241.73090277777774)"/><use xlink:href="#J" transform="matrix(1,0,0,1,1585,705) translate(369.0925925925926 241.73090277777774)"/><use xlink:href="#C" transform="matrix(1,0,0,1,1585,705) translate(47.122283950617415 284.3975694444444)"/><use xlink:href="#K" transform="matrix(1,0,0,1,1585,705) translate(243.86302469135805 284.3975694444444)"/><use xlink:href="#E" transform="matrix(1,0,0,1,1585,705) translate(303.1222839506173 284.3975694444444)"/><use xlink:href="#L" transform="matrix(1,0,0,1,1585,705) translate(466.2827777777777 284.3975694444444)"/><path d="M6290 913.33c0 117.82-118.64 213.34-265 213.34s-265-95.52-265-213.34C5760 795.5 5878.64 700 6025 700s265 95.5 265 213.33z" stroke="#5e5e5e" stroke-width="3" fill="#fff"/><use xlink:href="#M" transform="matrix(1,0,0,1,5765,705) translate(84.81055555555561 147.50347222222223)"/><use xlink:href="#N" transform="matrix(1,0,0,1,5765,705) translate(181.24882716049385 147.50347222222223)"/><use xlink:href="#O" transform="matrix(1,0,0,1,5765,705) translate(307.17475308641974 147.50347222222223)"/><use xlink:href="#P" transform="matrix(1,0,0,1,5765,705) translate(361.74265432098764 147.50347222222223)"/><use xlink:href="#Q" transform="matrix(1,0,0,1,5765,705) translate(107.05746913580252 192.83680555555554)"/><use xlink:href="#R" transform="matrix(1,0,0,1,5765,705) translate(184.50191358024693 192.83680555555554)"/><use xlink:href="#S" transform="matrix(1,0,0,1,5765,705) translate(339.49574074074076 192.83680555555554)"/><use xlink:href="#T" transform="matrix(1,0,0,1,5765,705) translate(73.42475308641984 238.17013888888886)"/><use xlink:href="#U" transform="matrix(1,0,0,1,5765,705) translate(272.49265432098764 238.17013888888886)"/><use xlink:href="#V" transform="matrix(1,0,0,1,5765,705) translate(373.12845679012344 238.17013888888886)"/><use xlink:href="#W" transform="matrix(1,0,0,1,5765,705) translate(20.535864197530923 283.5034722222222)"/><use xlink:href="#X" transform="matrix(1,0,0,1,5765,705) translate(229.5729012345679 283.5034722222222)"/><use xlink:href="#Y" transform="matrix(1,0,0,1,5765,705) translate(271.5482098765432 283.5034722222222)"/><use xlink:href="#Z" transform="matrix(1,0,0,1,5765,705) translate(444.90623456790115 283.5034722222222)"/><path d="M942.17 1563.05h-10v-560.23h10zm631.33-637.58h-529.67v-10h529.67z" fill="#5e5e5e"/><path d="M1578.5 920.46l.04 3.8.05 1.2h-5.23v-10h5.23zM937.17 1582.32l-4.64-14.27h9.27z" fill="#5e5e5e"/><path d="M937.17 1598.5l-11.52-35.45h23.03z" fill="#5e5e5e"/><use xlink:href="#q" transform="matrix(1,0,0,1,830.498687664042,874.8188977019761) translate(0 85.33333333333334)"/><path d="M4778.58 911.52h-74.75l-1.1.3-.27.27-.3 1.1v643.2h-10V911.85l1.35-4.96 4.04-4.03 4.96-1.35h76.08zm975.06 0h-761.72v-10h761.72z" fill="#5e5e5e"/><path d="M5758.65 905.94l-.1 5.58h-5.04v-10h5.43zM4697.17 1575.65l-4.64-14.26h9.27z" fill="#5e5e5e"/><path d="M4697.17 1591.83l-11.52-35.44h23.03z" fill="#5e5e5e"/><use xlink:href="#q" transform="matrix(1,0,0,1,4778.5826771644,842.5243645190612) translate(0 85.33333333333334)"/><path d="M2962.17 1563.05h-10V984.47h10zm-821.34-637.58v-10h664.83v10z" fill="#5e5e5e"/><path d="M2140.96 925.47h-5.23l.1-5-.04-3.78-.06-1.23h5.22zM2957.17 1582.32l-4.64-14.27h9.27z" fill="#5e5e5e"/><path d="M2957.17 1598.5l-11.52-35.45h23.03z" fill="#5e5e5e"/><use xlink:href="#r" transform="matrix(1,0,0,1,2805.659959404666,856.4724409448818) translate(0 85.33333333333334)"/><path d="M7636.8 909.67l4.02 4.04 1.35 4.97v637.72h-10V920l-.3-1.1-.27-.27-1.1-.3h-247.07v-10h248.4zm-1340.3 8.66v-10h927.23v10z" fill="#5e5e5e"/><path d="M6296.63 918.33h-5.23l.1-5-.04-3.7-.05-1.3h5.23zM7637.17 1575.65l-4.64-14.26h9.27z" fill="#5e5e5e"/><path d="M7637.17 1591.83l-11.52-35.44h23.03z" fill="#5e5e5e"/><use xlink:href="#r" transform="matrix(1,0,0,1,7223.730825377435,849.3333333333333) translate(0 85.33333333333334)"/><path d="M894.33 220.47c0 121.77-124.1 220.47-277.16 220.47-153.08 0-277.17-98.7-277.17-220.47C340 98.7 464.1 0 617.17 0c153.07 0 277.16 98.7 277.16 220.47z" stroke="#5e5e5e" stroke-width="3" fill="#0c7cba"/><g><use xlink:href="#aa" transform="matrix(1,0,0,1,345,5) translate(65.57598765432117 195.77951388888886)"/><use xlink:href="#ab" transform="matrix(1,0,0,1,345,5) translate(170.35376543209884 195.77951388888886)"/><use xlink:href="#ac" transform="matrix(1,0,0,1,345,5) translate(380.0512962962962 195.77951388888886)"/><use xlink:href="#ad" transform="matrix(1,0,0,1,345,5) translate(127.47413580246929 257.1128472222222)"/><use xlink:href="#ae" transform="matrix(1,0,0,1,345,5) translate(342.70870370370363 257.1128472222222)"/></g><path d="M1214.33 1820.47c0 121.77-124.1 220.47-277.16 220.47-153.08 0-277.17-98.7-277.17-220.47C660 1698.7 784.1 1600 937.17 1600c153.07 0 277.16 98.7 277.16 220.47z" stroke="#5e5e5e" stroke-width="3" fill="#c92d39"/><g><use xlink:href="#aa" transform="matrix(1,0,0,1,665,1605) translate(65.57598765432117 195.77951388888886)"/><use xlink:href="#ab" transform="matrix(1,0,0,1,665,1605) translate(170.35376543209884 195.77951388888886)"/><use xlink:href="#ac" transform="matrix(1,0,0,1,665,1605) translate(380.0512962962962 195.77951388888886)"/><use xlink:href="#af" transform="matrix(1,0,0,1,665,1605) translate(93.68401234567916 257.1128472222222)"/><use xlink:href="#ag" transform="matrix(1,0,0,1,665,1605) translate(376.49882716049376 257.1128472222222)"/></g><path d="M3234.33 1820.47c0 121.77-124.1 220.47-277.16 220.47-153.08 0-277.17-98.7-277.17-220.47 0-121.76 124.1-220.47 277.17-220.47 153.07 0 277.16 98.7 277.16 220.47z" stroke="#5e5e5e" stroke-width="3" fill="#19967d"/><g><use xlink:href="#aa" transform="matrix(1,0,0,1,2685,1605) translate(65.57598765432117 195.77951388888886)"/><use xlink:href="#ab" transform="matrix(1,0,0,1,2685,1605) translate(170.35376543209884 195.77951388888886)"/><use xlink:href="#ac" transform="matrix(1,0,0,1,2685,1605) translate(380.0512962962962 195.77951388888886)"/><use xlink:href="#ah" transform="matrix(1,0,0,1,2685,1605) translate(123.49882716049397 257.1128472222222)"/><use xlink:href="#ai" transform="matrix(1,0,0,1,2685,1605) translate(375.079074074074 257.1128472222222)"/></g><path d="M4974.33 1813.8c0 121.77-124.1 220.48-277.16 220.48-153.08 0-277.17-98.7-277.17-220.47 0-121.76 124.1-220.47 277.17-220.47 153.07 0 277.16 98.7 277.16 220.48z" stroke="#5e5e5e" stroke-width="3" fill="#fff"/><g><use xlink:href="#aj" transform="matrix(1,0,0,1,4425,1598.3333333333335) translate(102.17783950617293 156.39756944444443)"/><use xlink:href="#G" transform="matrix(1,0,0,1,4425,1598.3333333333335) translate(202.81981481481486 156.39756944444443)"/><use xlink:href="#u" transform="matrix(1,0,0,1,4425,1598.3333333333335) translate(321.33833333333337 156.39756944444443)"/><use xlink:href="#ak" transform="matrix(1,0,0,1,4425,1598.3333333333335) translate(372.69635802469134 156.39756944444443)"/><use xlink:href="#w" transform="matrix(1,0,0,1,4425,1598.3333333333335) translate(138.43092592592598 199.0642361111111)"/><use xlink:href="#x" transform="matrix(1,0,0,1,4425,1598.3333333333335) translate(211.31981481481486 199.0642361111111)"/><use xlink:href="#al" transform="matrix(1,0,0,1,4425,1598.3333333333335) translate(357.19635802469134 199.0642361111111)"/><use xlink:href="#z" transform="matrix(1,0,0,1,4425,1598.3333333333335) translate(106.77160493827165 241.73090277777774)"/><use xlink:href="#A" transform="matrix(1,0,0,1,4425,1598.3333333333335) translate(294.1296296296296 241.73090277777774)"/><use xlink:href="#am" transform="matrix(1,0,0,1,4425,1598.3333333333335) translate(388.84567901234567 241.73090277777774)"/><use xlink:href="#C" transform="matrix(1,0,0,1,4425,1598.3333333333335) translate(56.998827160493946 284.3975694444444)"/><use xlink:href="#an" transform="matrix(1,0,0,1,4425,1598.3333333333335) translate(253.73956790123458 284.3975694444444)"/><use xlink:href="#E" transform="matrix(1,0,0,1,4425,1598.3333333333335) translate(293.24574074074076 284.3975694444444)"/><use xlink:href="#L" transform="matrix(1,0,0,1,4425,1598.3333333333335) translate(456.40623456790115 284.3975694444444)"/></g><path d="M7914.33 1813.8c0 121.77-124.1 220.48-277.16 220.48-153.08 0-277.17-98.7-277.17-220.47 0-121.76 124.1-220.47 277.17-220.47 153.07 0 277.16 98.7 277.16 220.48z" stroke="#5e5e5e" stroke-width="3" fill="#fff"/><g><use xlink:href="#s" transform="matrix(1,0,0,1,7365,1598.3333333333335) translate(116.1037654320988 156.39756944444443)"/><use xlink:href="#t" transform="matrix(1,0,0,1,7365,1598.3333333333335) translate(206.8691975308642 156.39756944444443)"/><use xlink:href="#u" transform="matrix(1,0,0,1,7365,1598.3333333333335) translate(307.4124074074074 156.39756944444443)"/><use xlink:href="#ao" transform="matrix(1,0,0,1,7365,1598.3333333333335) translate(358.7704320987654 156.39756944444443)"/><use xlink:href="#w" transform="matrix(1,0,0,1,7365,1598.3333333333335) translate(118.6778395061729 199.0642361111111)"/><use xlink:href="#x" transform="matrix(1,0,0,1,7365,1598.3333333333335) translate(191.56672839506177 199.0642361111111)"/><use xlink:href="#I" transform="matrix(1,0,0,1,7365,1598.3333333333335) translate(337.4432716049382 199.0642361111111)"/><use xlink:href="#z" transform="matrix(1,0,0,1,7365,1598.3333333333335) translate(87.01851851851856 241.73090277777774)"/><use xlink:href="#A" transform="matrix(1,0,0,1,7365,1598.3333333333335) translate(274.37654320987656 241.73090277777774)"/><use xlink:href="#ap" transform="matrix(1,0,0,1,7365,1598.3333333333335) translate(369.0925925925926 241.73090277777774)"/><use xlink:href="#C" transform="matrix(1,0,0,1,7365,1598.3333333333335) translate(47.12228395061739 284.3975694444444)"/><use xlink:href="#an" transform="matrix(1,0,0,1,7365,1598.3333333333335) translate(243.86302469135802 284.3975694444444)"/><use xlink:href="#E" transform="matrix(1,0,0,1,7365,1598.3333333333335) translate(283.3691975308642 284.3975694444444)"/><use xlink:href="#aq" transform="matrix(1,0,0,1,7365,1598.3333333333335) translate(446.5296913580246 284.3975694444444)"/></g><path d="M3908.9 1818.95h-45.07l-1.1.3-.27.27-.3 1.1v202.43h-10V1819.3l1.35-4.97 4.04-4.04 4.96-1.35h46.4zm504.6 0h-291.27v-10h291.27z" fill="#5e5e5e"/><path d="M4418.5 1813.8l.04 3.8.06 1.35h-5.23v-10h5.23zM3857.17 2042.32l-4.64-14.27h9.27z" fill="#5e5e5e"/><path d="M3857.17 2058.5l-11.52-35.45h23.03z" fill="#5e5e5e"/><g><use xlink:href="#q" transform="matrix(1,0,0,1,3908.8924116024887,1749.9512803391262) translate(0 85.33333333333334)"/></g><path d="M5322.17 2023.05h-10V1877.8h10zm-341.34-204.24v-10H5189v10z" fill="#5e5e5e"/><path d="M4980.96 1818.8h-5.23l.1-5-.04-3.78-.06-1.2h5.22zM5317.17 2042.32l-4.64-14.27h9.27z" fill="#5e5e5e"/><path d="M5317.17 2058.5l-11.52-35.45h23.03z" fill="#5e5e5e"/><g><use xlink:href="#r" transform="matrix(1,0,0,1,5188.993292737999,1749.8057742782153) translate(0 85.33333333333334)"/></g><path d="M4134.33 2280.47c0 121.77-124.1 220.47-277.16 220.47-153.08 0-277.17-98.7-277.17-220.47 0-121.76 124.1-220.47 277.17-220.47 153.07 0 277.16 98.7 277.16 220.47z" stroke="#5e5e5e" stroke-width="3" fill="#c92d39"/><g><use xlink:href="#aa" transform="matrix(1,0,0,1,3585,2065) translate(65.57598765432117 195.77951388888886)"/><use xlink:href="#ab" transform="matrix(1,0,0,1,3585,2065) translate(170.35376543209884 195.77951388888886)"/><use xlink:href="#ac" transform="matrix(1,0,0,1,3585,2065) translate(380.0512962962962 195.77951388888886)"/><use xlink:href="#af" transform="matrix(1,0,0,1,3585,2065) translate(107.88154320987668 257.1128472222222)"/><use xlink:href="#ai" transform="matrix(1,0,0,1,3585,2065) translate(390.6963580246913 257.1128472222222)"/></g><path d="M5594.33 2280.47c0 121.77-124.1 220.47-277.16 220.47-153.08 0-277.17-98.7-277.17-220.47 0-121.76 124.1-220.47 277.17-220.47 153.07 0 277.16 98.7 277.16 220.47z" stroke="#5e5e5e" stroke-width="3" fill="#19967d"/><g><use xlink:href="#aa" transform="matrix(1,0,0,1,5045,2065) translate(65.57598765432117 195.77951388888886)"/><use xlink:href="#ab" transform="matrix(1,0,0,1,5045,2065) translate(170.35376543209884 195.77951388888886)"/><use xlink:href="#ac" transform="matrix(1,0,0,1,5045,2065) translate(380.0512962962962 195.77951388888886)"/><use xlink:href="#ah" transform="matrix(1,0,0,1,5045,2065) translate(123.49882716049397 257.1128472222222)"/><use xlink:href="#ai" transform="matrix(1,0,0,1,5045,2065) translate(375.079074074074 257.1128472222222)"/></g><path d="M6781.68 1818.8h-97.85l-1.1.3-.27.27-.3 1.1v216.86h-10v-218.2l1.35-4.95 4.04-4.03 4.96-1.34h99.18zm571.82 0H6995v-10h358.5z" fill="#5e5e5e"/><path d="M7358.5 1813.8l.04 3.8.05 1.2h-5.23v-10h5.23zM6677.17 2056.6l-4.64-14.27h9.27z" fill="#5e5e5e"/><path d="M6677.17 2072.78l-11.52-35.45h23.03z" fill="#5e5e5e"/><g><use xlink:href="#q" transform="matrix(1,0,0,1,6781.679789962065,1749.8057742782153) translate(0 85.33333333333334)"/></g><path d="M8736.8 1799.3l4.02 4.05 1.35 4.95v229.03h-10v-227.7l-.3-1.1-.27-.26-1.1-.3h-189.4v-10h190.73zm-816.3 8.67v-10h460.88v10z" fill="#5e5e5e"/><path d="M7920.62 1807.97h-4.9l-.24-5.46-.38-4.53h5.52zM8737.17 2056.6l-4.64-14.27h9.27z" fill="#5e5e5e"/><path d="M8737.17 2072.78l-11.52-35.45h23.03z" fill="#5e5e5e"/><g><use xlink:href="#r" transform="matrix(1,0,0,1,8381.383838351778,1738.9678612134303) translate(0 85.33333333333334)"/></g><path d="M6954.33 2294.75c0 121.76-124.1 220.47-277.16 220.47-153.08 0-277.17-98.7-277.17-220.47 0-121.76 124.1-220.47 277.17-220.47 153.07 0 277.16 98.7 277.16 220.47z" stroke="#5e5e5e" stroke-width="3" fill="#fff"/><g><use xlink:href="#aj" transform="matrix(1,0,0,1,6405,2079.278215223097) translate(102.17783950617293 156.39756944444443)"/><use xlink:href="#G" transform="matrix(1,0,0,1,6405,2079.278215223097) translate(202.81981481481486 156.39756944444443)"/><use xlink:href="#u" transform="matrix(1,0,0,1,6405,2079.278215223097) translate(321.33833333333337 156.39756944444443)"/><use xlink:href="#ar" transform="matrix(1,0,0,1,6405,2079.278215223097) translate(372.69635802469134 156.39756944444443)"/><use xlink:href="#w" transform="matrix(1,0,0,1,6405,2079.278215223097) translate(138.43092592592598 199.0642361111111)"/><use xlink:href="#x" transform="matrix(1,0,0,1,6405,2079.278215223097) translate(211.31981481481486 199.0642361111111)"/><use xlink:href="#al" transform="matrix(1,0,0,1,6405,2079.278215223097) translate(357.19635802469134 199.0642361111111)"/><use xlink:href="#z" transform="matrix(1,0,0,1,6405,2079.278215223097) translate(106.77160493827165 241.73090277777774)"/><use xlink:href="#A" transform="matrix(1,0,0,1,6405,2079.278215223097) translate(294.1296296296296 241.73090277777774)"/><use xlink:href="#am" transform="matrix(1,0,0,1,6405,2079.278215223097) translate(388.84567901234567 241.73090277777774)"/><use xlink:href="#C" transform="matrix(1,0,0,1,6405,2079.278215223097) translate(56.998827160493946 284.3975694444444)"/><use xlink:href="#an" transform="matrix(1,0,0,1,6405,2079.278215223097) translate(253.73956790123458 284.3975694444444)"/><use xlink:href="#E" transform="matrix(1,0,0,1,6405,2079.278215223097) translate(293.24574074074076 284.3975694444444)"/><use xlink:href="#L" transform="matrix(1,0,0,1,6405,2079.278215223097) translate(456.40623456790115 284.3975694444444)"/></g><path d="M9014.33 2294.75c0 121.76-124.1 220.47-277.16 220.47-153.08 0-277.17-98.7-277.17-220.47 0-121.76 124.1-220.47 277.17-220.47 153.07 0 277.16 98.7 277.16 220.47z" stroke="#5e5e5e" stroke-width="3" fill="#19967d"/><g><use xlink:href="#aa" transform="matrix(1,0,0,1,8465,2079.2782152230975) translate(65.57598765432117 195.77951388888886)"/><use xlink:href="#ab" transform="matrix(1,0,0,1,8465,2079.2782152230975) translate(170.35376543209884 195.77951388888886)"/><use xlink:href="#ac" transform="matrix(1,0,0,1,8465,2079.2782152230975) translate(380.0512962962962 195.77951388888886)"/><use xlink:href="#ah" transform="matrix(1,0,0,1,8465,2079.2782152230975) translate(109.30129629629643 257.1128472222222)"/><use xlink:href="#as" transform="matrix(1,0,0,1,8465,2079.2782152230975) translate(360.88154320987644 257.1128472222222)"/></g><path d="M6393.66 2301.48h-230.5c-3.3 0-6 2.7-6 6v215.57" stroke="#5e5e5e" stroke-width="10" fill="none"/><path d="M6398.54 2298.53l.3 7.5.05.45h-5.37v-10h5z" fill="#5e5e5e"/><path d="M6157.17 2542.32l-4.64-14.27h9.27z" stroke="#5e5e5e" stroke-width="10" fill="#5e5e5e"/><g><use xlink:href="#q" transform="matrix(1,0,0,1,5973.941160719275,2188.2842344536402) translate(0 85.33333333333334)"/></g><path d="M7596.8 2280.25l4.02 4.04 1.35 4.95v233.8h-10v-232.47l-.3-1.1-.27-.27-1.1-.3h-97.02v-10h98.35zm-636.3 8.66v-10h373.27v10z" fill="#5e5e5e"/><path d="M6960.62 2288.9h-4.9l-.24-5.44-.38-4.55h5.52zM7597.17 2542.32l-4.64-14.27h9.27z" fill="#5e5e5e"/><path d="M7597.17 2558.5l-11.52-35.45h23.03z" fill="#5e5e5e"/><g><use xlink:href="#r" transform="matrix(1,0,0,1,7333.772289795346,2219.9127431031934) translate(0 85.33333333333334)"/></g><path d="M6434.33 2780.47c0 121.77-124.1 220.47-277.16 220.47-153.08 0-277.17-98.7-277.17-220.47 0-121.76 124.1-220.47 277.17-220.47 153.07 0 277.16 98.7 277.16 220.47z" stroke="#5e5e5e" stroke-width="3" fill="#c92d39"/><g><use xlink:href="#aa" transform="matrix(1,0,0,1,5885,2565) translate(65.57598765432117 195.77951388888886)"/><use xlink:href="#ab" transform="matrix(1,0,0,1,5885,2565) translate(170.35376543209884 195.77951388888886)"/><use xlink:href="#ac" transform="matrix(1,0,0,1,5885,2565) translate(380.0512962962962 195.77951388888886)"/><use xlink:href="#af" transform="matrix(1,0,0,1,5885,2565) translate(107.88154320987668 257.1128472222222)"/><use xlink:href="#ai" transform="matrix(1,0,0,1,5885,2565) translate(390.6963580246913 257.1128472222222)"/></g><path d="M7874.33 2780.47c0 121.77-124.1 220.47-277.16 220.47-153.08 0-277.17-98.7-277.17-220.47 0-121.76 124.1-220.47 277.17-220.47 153.07 0 277.16 98.7 277.16 220.47z" stroke="#5e5e5e" stroke-width="3" fill="#19967d"/><g><use xlink:href="#aa" transform="matrix(1,0,0,1,7325,2565) translate(65.57598765432117 195.77951388888886)"/><use xlink:href="#ab" transform="matrix(1,0,0,1,7325,2565) translate(170.35376543209884 195.77951388888886)"/><use xlink:href="#ac" transform="matrix(1,0,0,1,7325,2565) translate(380.0512962962962 195.77951388888886)"/><use xlink:href="#ah" transform="matrix(1,0,0,1,7325,2565) translate(123.49882716049397 257.1128472222222)"/><use xlink:href="#ai" transform="matrix(1,0,0,1,7325,2565) translate(375.079074074074 257.1128472222222)"/></g><path d="M7597.17 2557.5v-33c0-3.3-2.7-6-6-6H7051c-3.3 0-6 2.7-6 6v29.5c0 3.3-2.7 6-6 6h-15.5" stroke="#5e5e5e" stroke-width="2" fill="none"/><path d="M7598.17 2558.52l-1-.02h-1v-1.03h2z" fill="#5e5e5e"/><path d="M7008.24 2560l14.26-4.64v9.28z" stroke="#5e5e5e" stroke-width="2" fill="#5e5e5e"/><defs><path fill="#333" d="M30-248c87 1 191-15 191 75 0 78-77 80-158 76V0H30v-248zm33 125c57 0 124 11 124-50 0-59-68-47-124-48v98" id="at"/><path fill="#333" d="M100-194c63 0 86 42 84 106H49c0 40 14 67 53 68 26 1 43-12 49-29l28 8c-11 28-37 45-77 45C44 4 14-33 15-96c1-61 26-98 85-98zm52 81c6-60-76-77-97-28-3 7-6 17-6 28h103" id="au"/><path fill="#333" d="M59-47c-2 24 18 29 38 22v24C64 9 27 4 27-40v-127H5v-23h24l9-43h21v43h35v23H59v120" id="av"/><path fill="#333" d="M141-36C126-15 110 5 73 4 37 3 15-17 15-53c-1-64 63-63 125-63 3-35-9-54-41-54-24 1-41 7-42 31l-33-3c5-37 33-52 76-52 45 0 72 20 72 64v82c-1 20 7 32 28 27v20c-31 9-61-2-59-35zM48-53c0 20 12 33 32 33 41-3 63-29 60-74-43 2-92-5-92 41" id="aw"/><path fill="#333" d="M24 0v-261h32V0H24" id="ax"/><g id="a"><use transform="matrix(0.10493827160493824,0,0,0.10493827160493824,0,0)" xlink:href="#at"/><use transform="matrix(0.10493827160493824,0,0,0.10493827160493824,25.185185185185176,0)" xlink:href="#au"/><use transform="matrix(0.10493827160493824,0,0,0.10493827160493824,46.17283950617282,0)" xlink:href="#av"/><use transform="matrix(0.10493827160493824,0,0,0.10493827160493824,56.66666666666665,0)" xlink:href="#aw"/><use transform="matrix(0.10493827160493824,0,0,0.10493827160493824,77.65432098765429,0)" xlink:href="#ax"/></g><path fill="#333" d="M30 0v-248h33v221h125V0H30" id="ay"/><path fill="#333" d="M117-194c89-4 53 116 60 194h-32v-121c0-31-8-49-39-48C34-167 62-67 57 0H25l-1-190h30c1 10-1 24 2 32 11-22 29-35 61-36" id="az"/><path fill="#333" d="M177-190C167-65 218 103 67 71c-23-6-38-20-44-43l32-5c15 47 100 32 89-28v-30C133-14 115 1 83 1 29 1 15-40 15-95c0-56 16-97 71-98 29-1 48 16 59 35 1-10 0-23 2-32h30zM94-22c36 0 50-32 50-73 0-42-14-75-50-75-39 0-46 34-46 75s6 73 46 73" id="aA"/><path fill="#333" d="M106-169C34-169 62-67 57 0H25v-261h32l-1 103c12-21 28-36 61-36 89 0 53 116 60 194h-32v-121c2-32-8-49-39-48" id="aB"/><g id="b"><use transform="matrix(0.10493827160493824,0,0,0.10493827160493824,0,0)" xlink:href="#ay"/><use transform="matrix(0.10493827160493824,0,0,0.10493827160493824,20.987654320987648,0)" xlink:href="#au"/><use transform="matrix(0.10493827160493824,0,0,0.10493827160493824,41.975308641975296,0)" xlink:href="#az"/><use transform="matrix(0.10493827160493824,0,0,0.10493827160493824,62.96296296296294,0)" xlink:href="#aA"/><use transform="matrix(0.10493827160493824,0,0,0.10493827160493824,83.95061728395059,0)" xlink:href="#av"/><use transform="matrix(0.10493827160493824,0,0,0.10493827160493824,94.44444444444441,0)" xlink:href="#aB"/></g><path fill="#333" d="M18-100v-36l175-74v27L42-118l151 64v27" id="aC"/><path fill="#333" d="M18-150v-26h174v26H18zm0 90v-26h174v26H18" id="aD"/><g id="c"><use transform="matrix(0.10493827160493824,0,0,0.10493827160493824,0,0)" xlink:href="#aC"/><use transform="matrix(0.10493827160493824,0,0,0.10493827160493824,22.03703703703703,0)" xlink:href="#aD"/></g><path fill="#333" d="M101-251c82-7 93 87 43 132L82-64C71-53 59-42 53-27h129V0H18c2-99 128-94 128-182 0-28-16-43-45-43s-46 15-49 41l-32-3c6-41 34-60 81-64" id="aE"/><path fill="#333" d="M33 0v-38h34V0H33" id="aF"/><path fill="#333" d="M155-56V0h-30v-56H8v-25l114-167h33v167h35v25h-35zm-30-156c-27 46-58 90-88 131h88v-131" id="aG"/><path fill="#333" d="M54-142c48-35 137-8 131 61C196 18 31 33 14-55l32-4c7 23 22 37 52 37 35-1 51-22 54-58 4-55-73-65-99-34H22l8-134h141v27H59" id="aH"/><g id="d"><use transform="matrix(0.10493827160493824,0,0,0.10493827160493824,0,0)" xlink:href="#aE"/><use transform="matrix(0.10493827160493824,0,0,0.10493827160493824,20.987654320987648,0)" xlink:href="#aF"/><use transform="matrix(0.10493827160493824,0,0,0.10493827160493824,31.48148148148147,0)" xlink:href="#aG"/><use transform="matrix(0.10493827160493824,0,0,0.10493827160493824,52.469135802469125,0)" xlink:href="#aH"/></g><path fill="#333" d="M143 4C61 4 22-44 18-125c-5-107 100-154 193-111 17 8 29 25 37 43l-32 9c-13-25-37-40-76-40-61 0-88 39-88 99 0 61 29 100 91 101 35 0 62-11 79-27v-45h-74v-28h105v86C228-13 192 4 143 4" id="aI"/><path fill="#333" d="M24-231v-30h32v30H24zM24 0v-190h32V0H24" id="aJ"/><g id="e"><use transform="matrix(0.10493827160493824,0,0,0.10493827160493824,0,0)" xlink:href="#aI"/><use transform="matrix(0.10493827160493824,0,0,0.10493827160493824,29.382716049382708,0)" xlink:href="#aJ"/><use transform="matrix(0.10493827160493824,0,0,0.10493827160493824,37.67283950617283,0)" xlink:href="#az"/><use transform="matrix(0.10493827160493824,0,0,0.10493827160493824,58.66049382716047,0)" xlink:href="#aJ"/></g><path fill="#333" d="M33 0v-248h34V0H33" id="aK"/><path fill="#333" d="M210-169c-67 3-38 105-44 169h-31v-121c0-29-5-50-35-48C34-165 62-65 56 0H25l-1-190h30c1 10-1 24 2 32 10-44 99-50 107 0 11-21 27-35 58-36 85-2 47 119 55 194h-31v-121c0-29-5-49-35-48" id="aL"/><path fill="#333" d="M115-194c55 1 70 41 70 98S169 2 115 4C84 4 66-9 55-30l1 105H24l-1-265h31l2 30c10-21 28-34 59-34zm-8 174c40 0 45-34 45-75s-6-73-45-74c-42 0-51 32-51 76 0 43 10 73 51 73" id="aM"/><path fill="#333" d="M84 4C-5 8 30-112 23-190h32v120c0 31 7 50 39 49 72-2 45-101 50-169h31l1 190h-30c-1-10 1-25-2-33-11 22-28 36-60 37" id="aN"/><path fill="#333" d="M114-163C36-179 61-72 57 0H25l-1-190h30c1 12-1 29 2 39 6-27 23-49 58-41v29" id="aO"/><path fill="#333" d="M179-190L93 31C79 59 56 82 12 73V49c39 6 53-20 64-50L1-190h34L92-34l54-156h33" id="aP"/><path fill="#333" d="M33-154v-36h34v36H33zM33 0v-36h34V0H33" id="aQ"/><g id="f"><use transform="matrix(0.10493827160493824,0,0,0.10493827160493824,0,0)" xlink:href="#aK"/><use transform="matrix(0.10493827160493824,0,0,0.10493827160493824,10.493827160493824,0)" xlink:href="#aL"/><use transform="matrix(0.10493827160493824,0,0,0.10493827160493824,41.87037037037036,0)" xlink:href="#aM"/><use transform="matrix(0.10493827160493824,0,0,0.10493827160493824,62.85802469135802,0)" xlink:href="#aN"/><use transform="matrix(0.10493827160493824,0,0,0.10493827160493824,83.84567901234566,0)" xlink:href="#aO"/><use transform="matrix(0.10493827160493824,0,0,0.10493827160493824,96.3333333333333,0)" xlink:href="#aJ"/><use transform="matrix(0.10493827160493824,0,0,0.10493827160493824,104.62345679012343,0)" xlink:href="#av"/><use transform="matrix(0.10493827160493824,0,0,0.10493827160493824,115.11728395061725,0)" xlink:href="#aP"/><use transform="matrix(0.10493827160493824,0,0,0.10493827160493824,134.00617283950612,0)" xlink:href="#aQ"/></g><path fill="#333" d="M101-251c68 0 85 55 85 127S166 4 100 4C33 4 14-52 14-124c0-73 17-127 87-127zm-1 229c47 0 54-49 54-102s-4-102-53-102c-51 0-55 48-55 102 0 53 5 102 54 102" id="aR"/><path fill="#333" d="M110-160c48 1 74 30 74 79 0 53-28 85-80 85-65 0-83-55-86-122-5-90 50-162 133-122 14 7 22 21 27 39l-31 6c-5-40-67-38-82-6-9 19-15 44-15 74 11-20 30-34 60-33zm-7 138c34 0 49-23 49-58s-16-56-50-56c-29 0-50 16-49 49 1 36 15 65 50 65" id="aS"/><g id="g"><use transform="matrix(0.10493827160493824,0,0,0.10493827160493824,0,0)" xlink:href="#aR"/><use transform="matrix(0.10493827160493824,0,0,0.10493827160493824,20.987654320987648,0)" xlink:href="#aF"/><use transform="matrix(0.10493827160493824,0,0,0.10493827160493824,31.48148148148147,0)" xlink:href="#aS"/><use transform="matrix(0.10493827160493824,0,0,0.10493827160493824,52.469135802469125,0)" xlink:href="#aS"/></g><path fill="#333" d="M101-234c-31-9-42 10-38 44h38v23H63V0H32v-167H5v-23h27c-7-52 17-82 69-68v24" id="aT"/><path fill="#333" d="M100-194c62-1 85 37 85 99 1 63-27 99-86 99S16-35 15-95c0-66 28-99 85-99zM99-20c44 1 53-31 53-75 0-43-8-75-51-75s-53 32-53 75 10 74 51 75" id="aU"/><g id="h"><use transform="matrix(0.10493827160493824,0,0,0.10493827160493824,0,0)" xlink:href="#aK"/><use transform="matrix(0.10493827160493824,0,0,0.10493827160493824,10.493827160493824,0)" xlink:href="#az"/><use transform="matrix(0.10493827160493824,0,0,0.10493827160493824,31.48148148148147,0)" xlink:href="#aT"/><use transform="matrix(0.10493827160493824,0,0,0.10493827160493824,41.975308641975296,0)" xlink:href="#aU"/><use transform="matrix(0.10493827160493824,0,0,0.10493827160493824,62.96296296296294,0)" xlink:href="#aO"/><use transform="matrix(0.10493827160493824,0,0,0.10493827160493824,75.45061728395059,0)" xlink:href="#aL"/><use transform="matrix(0.10493827160493824,0,0,0.10493827160493824,106.82716049382712,0)" xlink:href="#aw"/><use transform="matrix(0.10493827160493824,0,0,0.10493827160493824,127.81481481481477,0)" xlink:href="#av"/><use transform="matrix(0.10493827160493824,0,0,0.10493827160493824,138.3086419753086,0)" xlink:href="#aJ"/><use transform="matrix(0.10493827160493824,0,0,0.10493827160493824,146.59876543209873,0)" xlink:href="#aU"/><use transform="matrix(0.10493827160493824,0,0,0.10493827160493824,167.58641975308637,0)" xlink:href="#az"/></g><g id="i"><use transform="matrix(0.10493827160493824,0,0,0.10493827160493824,0,0)" xlink:href="#aI"/><use transform="matrix(0.10493827160493824,0,0,0.10493827160493824,29.382716049382708,0)" xlink:href="#aw"/><use transform="matrix(0.10493827160493824,0,0,0.10493827160493824,50.37037037037035,0)" xlink:href="#aJ"/><use transform="matrix(0.10493827160493824,0,0,0.10493827160493824,58.66049382716047,0)" xlink:href="#az"/><use transform="matrix(0.10493827160493824,0,0,0.10493827160493824,79.64814814814812,0)" xlink:href="#aQ"/></g><path fill="#333" d="M126-127c33 6 58 20 58 59 0 88-139 92-164 29-3-8-5-16-6-25l32-3c6 27 21 44 54 44 32 0 52-15 52-46 0-38-36-46-79-43v-28c39 1 72-4 72-42 0-27-17-43-46-43-28 0-47 15-49 41l-32-3c6-42 35-63 81-64 48-1 79 21 79 65 0 36-21 52-52 59" id="aV"/><g id="j"><use transform="matrix(0.10493827160493824,0,0,0.10493827160493824,0,0)" xlink:href="#aR"/><use transform="matrix(0.10493827160493824,0,0,0.10493827160493824,20.987654320987648,0)" xlink:href="#aF"/><use transform="matrix(0.10493827160493824,0,0,0.10493827160493824,31.48148148148147,0)" xlink:href="#aV"/><use transform="matrix(0.10493827160493824,0,0,0.10493827160493824,52.469135802469125,0)" xlink:href="#aV"/></g><path fill="#333" d="M39-94c74 12-11 154 75 146v23c-44 4-70-10-70-52C44-23 55-84 6-82v-22c81 4-7-162 84-157h24v23c-82-15-2 131-75 144" id="aW"/><path fill="#333" d="M47-170H22l-4-78h33" id="aX"/><path fill="#333" d="M135-143c-3-34-86-38-87 0 15 53 115 12 119 90S17 21 10-45l28-5c4 36 97 45 98 0-10-56-113-15-118-90-4-57 82-63 122-42 12 7 21 19 24 35" id="aY"/><g id="k"><use transform="matrix(0.10493827160493824,0,0,0.10493827160493824,0,0)" xlink:href="#aW"/><use transform="matrix(0.10493827160493824,0,0,0.10493827160493824,12.592592592592588,0)" xlink:href="#aX"/><use transform="matrix(0.10493827160493824,0,0,0.10493827160493824,19.72839506172839,0)" xlink:href="#aY"/><use transform="matrix(0.10493827160493824,0,0,0.10493827160493824,38.61728395061727,0)" xlink:href="#au"/><use transform="matrix(0.10493827160493824,0,0,0.10493827160493824,59.60493827160492,0)" xlink:href="#av"/><use transform="matrix(0.10493827160493824,0,0,0.10493827160493824,70.09876543209874,0)" xlink:href="#aU"/><use transform="matrix(0.10493827160493824,0,0,0.10493827160493824,91.08641975308639,0)" xlink:href="#aY"/><use transform="matrix(0.10493827160493824,0,0,0.10493827160493824,109.97530864197527,0)" xlink:href="#aw"/><use transform="matrix(0.10493827160493824,0,0,0.10493827160493824,130.96296296296293,0)" xlink:href="#aX"/><use transform="matrix(0.10493827160493824,0,0,0.10493827160493824,138.09876543209873,0)" xlink:href="#aQ"/></g><path fill="#333" d="M68-38c1 34 0 65-14 84H32c9-13 17-26 17-46H33v-38h35" id="aZ"/><g id="l"><use transform="matrix(0.10493827160493824,0,0,0.10493827160493824,0,0)" xlink:href="#aV"/><use transform="matrix(0.10493827160493824,0,0,0.10493827160493824,20.987654320987648,0)" xlink:href="#aH"/><use transform="matrix(0.10493827160493824,0,0,0.10493827160493824,41.975308641975296,0)" xlink:href="#aZ"/></g><path fill="#333" d="M108 0H70L1-190h34L89-25l56-165h34" id="ba"/><path fill="#333" d="M96-169c-40 0-48 33-48 73s9 75 48 75c24 0 41-14 43-38l32 2c-6 37-31 61-74 61-59 0-76-41-82-99-10-93 101-131 147-64 4 7 5 14 7 22l-32 3c-4-21-16-35-41-35" id="bb"/><g id="m"><use transform="matrix(0.10493827160493824,0,0,0.10493827160493824,0,0)" xlink:href="#aX"/><use transform="matrix(0.10493827160493824,0,0,0.10493827160493824,7.1358024691358,0)" xlink:href="#ba"/><use transform="matrix(0.10493827160493824,0,0,0.10493827160493824,26.024691358024683,0)" xlink:href="#au"/><use transform="matrix(0.10493827160493824,0,0,0.10493827160493824,47.01234567901233,0)" xlink:href="#aO"/><use transform="matrix(0.10493827160493824,0,0,0.10493827160493824,59.49999999999998,0)" xlink:href="#aY"/><use transform="matrix(0.10493827160493824,0,0,0.10493827160493824,78.38888888888886,0)" xlink:href="#aJ"/><use transform="matrix(0.10493827160493824,0,0,0.10493827160493824,86.67901234567898,0)" xlink:href="#bb"/><use transform="matrix(0.10493827160493824,0,0,0.10493827160493824,105.56790123456787,0)" xlink:href="#aU"/><use transform="matrix(0.10493827160493824,0,0,0.10493827160493824,126.55555555555551,0)" xlink:href="#ax"/><use transform="matrix(0.10493827160493824,0,0,0.10493827160493824,134.84567901234564,0)" xlink:href="#aU"/><use transform="matrix(0.10493827160493824,0,0,0.10493827160493824,155.8333333333333,0)" xlink:href="#aO"/><use transform="matrix(0.10493827160493824,0,0,0.10493827160493824,168.32098765432093,0)" xlink:href="#aX"/><use transform="matrix(0.10493827160493824,0,0,0.10493827160493824,175.45679012345673,0)" xlink:href="#aQ"/></g><g id="n"><use transform="matrix(0.10493827160493824,0,0,0.10493827160493824,0,0)" xlink:href="#aV"/><use transform="matrix(0.10493827160493824,0,0,0.10493827160493824,20.987654320987648,0)" xlink:href="#aH"/><use transform="matrix(0.10493827160493824,0,0,0.10493827160493824,41.975308641975296,0)" xlink:href="#aZ"/></g><g id="o"><use transform="matrix(0.10493827160493824,0,0,0.10493827160493824,0,0)" xlink:href="#aX"/><use transform="matrix(0.10493827160493824,0,0,0.10493827160493824,7.1358024691358,0)" xlink:href="#ba"/><use transform="matrix(0.10493827160493824,0,0,0.10493827160493824,26.024691358024683,0)" xlink:href="#aJ"/><use transform="matrix(0.10493827160493824,0,0,0.10493827160493824,34.3148148148148,0)" xlink:href="#aO"/><use transform="matrix(0.10493827160493824,0,0,0.10493827160493824,46.802469135802454,0)" xlink:href="#aA"/><use transform="matrix(0.10493827160493824,0,0,0.10493827160493824,67.7901234567901,0)" xlink:href="#aJ"/><use transform="matrix(0.10493827160493824,0,0,0.10493827160493824,76.08024691358023,0)" xlink:href="#az"/><use transform="matrix(0.10493827160493824,0,0,0.10493827160493824,97.06790123456787,0)" xlink:href="#aJ"/><use transform="matrix(0.10493827160493824,0,0,0.10493827160493824,105.358024691358,0)" xlink:href="#bb"/><use transform="matrix(0.10493827160493824,0,0,0.10493827160493824,124.24691358024687,0)" xlink:href="#aw"/><use transform="matrix(0.10493827160493824,0,0,0.10493827160493824,145.23456790123453,0)" xlink:href="#aX"/><use transform="matrix(0.10493827160493824,0,0,0.10493827160493824,152.37037037037032,0)" xlink:href="#aQ"/></g><path fill="#333" d="M76-40C78 24 84 88 6 75V52C86 64 9-79 80-94c-40-6-34-59-34-106 1-29-11-41-40-38v-23c44-4 70 10 70 52 0 47-12 108 38 105v22c-26 1-39 14-38 42" id="bc"/><g id="p"><use transform="matrix(0.10493827160493824,0,0,0.10493827160493824,0,0)" xlink:href="#aV"/><use transform="matrix(0.10493827160493824,0,0,0.10493827160493824,20.987654320987648,0)" xlink:href="#aH"/><use transform="matrix(0.10493827160493824,0,0,0.10493827160493824,41.975308641975296,0)" xlink:href="#bc"/></g><path fill="#333" d="M146-102V0H94v-102L6-248h54l60 105 60-105h54" id="bd"/><path fill="#333" d="M24 0v-248h195v40H76v63h132v40H76v65h150V0H24" id="be"/><path fill="#333" d="M169-182c-1-43-94-46-97-3 18 66 151 10 154 114 3 95-165 93-204 36-6-8-10-19-12-30l50-8c3 46 112 56 116 5-17-69-150-10-154-114-4-87 153-88 188-35 5 8 8 18 10 28" id="bf"/><g id="q"><use transform="matrix(0.29629629629629634,0,0,0.29629629629629634,0,0)" xlink:href="#bd"/><use transform="matrix(0.29629629629629634,0,0,0.29629629629629634,71.11111111111111,0)" xlink:href="#be"/><use transform="matrix(0.29629629629629634,0,0,0.29629629629629634,142.22222222222223,0)" xlink:href="#bf"/></g><path fill="#333" d="M175 0L67-191c6 58 2 128 3 191H24v-248h59L193-55c-6-58-2-129-3-193h46V0h-61" id="bg"/><path fill="#333" d="M140-251c80 0 125 45 125 126S219 4 139 4C58 4 15-44 15-125s44-126 125-126zm-1 214c52 0 73-35 73-88 0-50-21-86-72-86-52 0-73 35-73 86s22 88 72 88" id="bh"/><g id="r"><use transform="matrix(0.29629629629629634,0,0,0.29629629629629634,0,0)" xlink:href="#bg"/><use transform="matrix(0.29629629629629634,0,0,0.29629629629629634,76.74074074074075,0)" xlink:href="#bh"/></g><g id="s"><use transform="matrix(0.0987654320987654,0,0,0.0987654320987654,0,0)" xlink:href="#at"/><use transform="matrix(0.0987654320987654,0,0,0.0987654320987654,23.703703703703695,0)" xlink:href="#au"/><use transform="matrix(0.0987654320987654,0,0,0.0987654320987654,43.45679012345677,0)" xlink:href="#av"/><use transform="matrix(0.0987654320987654,0,0,0.0987654320987654,53.33333333333331,0)" xlink:href="#aw"/><use transform="matrix(0.0987654320987654,0,0,0.0987654320987654,73.08641975308639,0)" xlink:href="#ax"/></g><path fill="#333" d="M266 0h-40l-56-210L115 0H75L2-248h35L96-30l15-64 43-154h32l59 218 59-218h35" id="bi"/><path fill="#333" d="M85-194c31 0 48 13 60 33l-1-100h32l1 261h-30c-2-10 0-23-3-31C134-8 116 4 85 4 32 4 16-35 15-94c0-66 23-100 70-100zm9 24c-40 0-46 34-46 75 0 40 6 74 45 74 42 0 51-32 51-76 0-42-9-74-50-73" id="bj"/><g id="t"><use transform="matrix(0.0987654320987654,0,0,0.0987654320987654,0,0)" xlink:href="#bi"/><use transform="matrix(0.0987654320987654,0,0,0.0987654320987654,33.48148148148147,0)" xlink:href="#aJ"/><use transform="matrix(0.0987654320987654,0,0,0.0987654320987654,41.283950617283935,0)" xlink:href="#bj"/><use transform="matrix(0.0987654320987654,0,0,0.0987654320987654,61.037037037037,0)" xlink:href="#av"/><use transform="matrix(0.0987654320987654,0,0,0.0987654320987654,70.91358024691355,0)" xlink:href="#aB"/></g><g id="u"><use transform="matrix(0.0987654320987654,0,0,0.0987654320987654,0,0)" xlink:href="#aC"/><use transform="matrix(0.0987654320987654,0,0,0.0987654320987654,20.740740740740733,0)" xlink:href="#aD"/></g><path fill="#333" d="M27 0v-27h64v-190l-56 39v-29l58-41h29v221h61V0H27" id="bk"/><g id="v"><use transform="matrix(0.0987654320987654,0,0,0.0987654320987654,0,0)" xlink:href="#bk"/><use transform="matrix(0.0987654320987654,0,0,0.0987654320987654,19.753086419753078,0)" xlink:href="#aF"/><use transform="matrix(0.0987654320987654,0,0,0.0987654320987654,29.62962962962962,0)" xlink:href="#aH"/><use transform="matrix(0.0987654320987654,0,0,0.0987654320987654,49.382716049382694,0)" xlink:href="#aH"/></g><g id="w"><use transform="matrix(0.0987654320987654,0,0,0.0987654320987654,0,0)" xlink:href="#aI"/><use transform="matrix(0.0987654320987654,0,0,0.0987654320987654,27.654320987654312,0)" xlink:href="#aJ"/><use transform="matrix(0.0987654320987654,0,0,0.0987654320987654,35.45679012345678,0)" xlink:href="#az"/><use transform="matrix(0.0987654320987654,0,0,0.0987654320987654,55.20987654320986,0)" xlink:href="#aJ"/></g><g id="x"><use transform="matrix(0.0987654320987654,0,0,0.0987654320987654,0,0)" xlink:href="#aK"/><use transform="matrix(0.0987654320987654,0,0,0.0987654320987654,9.876543209876539,0)" xlink:href="#aL"/><use transform="matrix(0.0987654320987654,0,0,0.0987654320987654,39.40740740740739,0)" xlink:href="#aM"/><use transform="matrix(0.0987654320987654,0,0,0.0987654320987654,59.160493827160465,0)" xlink:href="#aN"/><use transform="matrix(0.0987654320987654,0,0,0.0987654320987654,78.91358024691354,0)" xlink:href="#aO"/><use transform="matrix(0.0987654320987654,0,0,0.0987654320987654,90.66666666666663,0)" xlink:href="#aJ"/><use transform="matrix(0.0987654320987654,0,0,0.0987654320987654,98.4691358024691,0)" xlink:href="#av"/><use transform="matrix(0.0987654320987654,0,0,0.0987654320987654,108.34567901234564,0)" xlink:href="#aP"/><use transform="matrix(0.0987654320987654,0,0,0.0987654320987654,126.12345679012341,0)" xlink:href="#aQ"/></g><g id="y"><use transform="matrix(0.0987654320987654,0,0,0.0987654320987654,0,0)" xlink:href="#aR"/><use transform="matrix(0.0987654320987654,0,0,0.0987654320987654,19.753086419753078,0)" xlink:href="#aF"/><use transform="matrix(0.0987654320987654,0,0,0.0987654320987654,29.62962962962962,0)" xlink:href="#aH"/><use transform="matrix(0.0987654320987654,0,0,0.0987654320987654,49.382716049382694,0)" xlink:href="#aR"/></g><g id="z"><use transform="matrix(0.0987654320987654,0,0,0.0987654320987654,0,0)" xlink:href="#aK"/><use transform="matrix(0.0987654320987654,0,0,0.0987654320987654,9.876543209876539,0)" xlink:href="#az"/><use transform="matrix(0.0987654320987654,0,0,0.0987654320987654,29.62962962962962,0)" xlink:href="#aT"/><use transform="matrix(0.0987654320987654,0,0,0.0987654320987654,39.506172839506156,0)" xlink:href="#aU"/><use transform="matrix(0.0987654320987654,0,0,0.0987654320987654,59.25925925925924,0)" xlink:href="#aO"/><use transform="matrix(0.0987654320987654,0,0,0.0987654320987654,71.01234567901233,0)" xlink:href="#aL"/><use transform="matrix(0.0987654320987654,0,0,0.0987654320987654,100.54320987654319,0)" xlink:href="#aw"/><use transform="matrix(0.0987654320987654,0,0,0.0987654320987654,120.29629629629626,0)" xlink:href="#av"/><use transform="matrix(0.0987654320987654,0,0,0.0987654320987654,130.1728395061728,0)" xlink:href="#aJ"/><use transform="matrix(0.0987654320987654,0,0,0.0987654320987654,137.97530864197526,0)" xlink:href="#aU"/><use transform="matrix(0.0987654320987654,0,0,0.0987654320987654,157.72839506172835,0)" xlink:href="#az"/></g><g id="A"><use transform="matrix(0.0987654320987654,0,0,0.0987654320987654,0,0)" xlink:href="#aI"/><use transform="matrix(0.0987654320987654,0,0,0.0987654320987654,27.654320987654312,0)" xlink:href="#aw"/><use transform="matrix(0.0987654320987654,0,0,0.0987654320987654,47.40740740740739,0)" xlink:href="#aJ"/><use transform="matrix(0.0987654320987654,0,0,0.0987654320987654,55.20987654320986,0)" xlink:href="#az"/><use transform="matrix(0.0987654320987654,0,0,0.0987654320987654,74.96296296296293,0)" xlink:href="#aQ"/></g><g id="B"><use transform="matrix(0.0987654320987654,0,0,0.0987654320987654,0,0)" xlink:href="#aR"/><use transform="matrix(0.0987654320987654,0,0,0.0987654320987654,19.753086419753078,0)" xlink:href="#aF"/><use transform="matrix(0.0987654320987654,0,0,0.0987654320987654,29.62962962962962,0)" xlink:href="#aG"/><use transform="matrix(0.0987654320987654,0,0,0.0987654320987654,49.382716049382694,0)" xlink:href="#aE"/></g><g id="C"><use transform="matrix(0.0987654320987654,0,0,0.0987654320987654,0,0)" xlink:href="#aW"/><use transform="matrix(0.0987654320987654,0,0,0.0987654320987654,11.851851851851848,0)" xlink:href="#aX"/><use transform="matrix(0.0987654320987654,0,0,0.0987654320987654,18.567901234567895,0)" xlink:href="#ba"/><use transform="matrix(0.0987654320987654,0,0,0.0987654320987654,36.34567901234567,0)" xlink:href="#au"/><use transform="matrix(0.0987654320987654,0,0,0.0987654320987654,56.098765432098745,0)" xlink:href="#aO"/><use transform="matrix(0.0987654320987654,0,0,0.0987654320987654,67.85185185185182,0)" xlink:href="#aY"/><use transform="matrix(0.0987654320987654,0,0,0.0987654320987654,85.62962962962959,0)" xlink:href="#aJ"/><use transform="matrix(0.0987654320987654,0,0,0.0987654320987654,93.43209876543206,0)" xlink:href="#bb"/><use transform="matrix(0.0987654320987654,0,0,0.0987654320987654,111.20987654320984,0)" xlink:href="#aU"/><use transform="matrix(0.0987654320987654,0,0,0.0987654320987654,130.9629629629629,0)" xlink:href="#ax"/><use transform="matrix(0.0987654320987654,0,0,0.0987654320987654,138.76543209876536,0)" xlink:href="#aU"/><use transform="matrix(0.0987654320987654,0,0,0.0987654320987654,158.51851851851845,0)" xlink:href="#aO"/><use transform="matrix(0.0987654320987654,0,0,0.0987654320987654,170.27160493827154,0)" xlink:href="#aX"/><use transform="matrix(0.0987654320987654,0,0,0.0987654320987654,176.9876543209876,0)" xlink:href="#aQ"/></g><g id="D"><use transform="matrix(0.0987654320987654,0,0,0.0987654320987654,0,0)" xlink:href="#aV"/><use transform="matrix(0.0987654320987654,0,0,0.0987654320987654,19.753086419753078,0)" xlink:href="#aH"/><use transform="matrix(0.0987654320987654,0,0,0.0987654320987654,39.506172839506156,0)" xlink:href="#aZ"/></g><g id="E"><use transform="matrix(0.0987654320987654,0,0,0.0987654320987654,0,0)" xlink:href="#aX"/><use transform="matrix(0.0987654320987654,0,0,0.0987654320987654,6.716049382716047,0)" xlink:href="#ba"/><use transform="matrix(0.0987654320987654,0,0,0.0987654320987654,24.49382716049382,0)" xlink:href="#aJ"/><use transform="matrix(0.0987654320987654,0,0,0.0987654320987654,32.29629629629628,0)" xlink:href="#aO"/><use transform="matrix(0.0987654320987654,0,0,0.0987654320987654,44.049382716049365,0)" xlink:href="#aA"/><use transform="matrix(0.0987654320987654,0,0,0.0987654320987654,63.80246913580244,0)" xlink:href="#aJ"/><use transform="matrix(0.0987654320987654,0,0,0.0987654320987654,71.60493827160491,0)" xlink:href="#az"/><use transform="matrix(0.0987654320987654,0,0,0.0987654320987654,91.35802469135798,0)" xlink:href="#aJ"/><use transform="matrix(0.0987654320987654,0,0,0.0987654320987654,99.16049382716045,0)" xlink:href="#bb"/><use transform="matrix(0.0987654320987654,0,0,0.0987654320987654,116.93827160493824,0)" xlink:href="#aw"/><use transform="matrix(0.0987654320987654,0,0,0.0987654320987654,136.6913580246913,0)" xlink:href="#aX"/><use transform="matrix(0.0987654320987654,0,0,0.0987654320987654,143.40740740740736,0)" xlink:href="#aQ"/></g><g id="F"><use transform="matrix(0.0987654320987654,0,0,0.0987654320987654,0,0)" xlink:href="#aV"/><use transform="matrix(0.0987654320987654,0,0,0.0987654320987654,19.753086419753078,0)" xlink:href="#aH"/><use transform="matrix(0.0987654320987654,0,0,0.0987654320987654,39.506172839506156,0)" xlink:href="#bc"/></g><g id="G"><use transform="matrix(0.0987654320987654,0,0,0.0987654320987654,0,0)" xlink:href="#ay"/><use transform="matrix(0.0987654320987654,0,0,0.0987654320987654,19.753086419753078,0)" xlink:href="#au"/><use transform="matrix(0.0987654320987654,0,0,0.0987654320987654,39.506172839506156,0)" xlink:href="#az"/><use transform="matrix(0.0987654320987654,0,0,0.0987654320987654,59.25925925925924,0)" xlink:href="#aA"/><use transform="matrix(0.0987654320987654,0,0,0.0987654320987654,79.01234567901231,0)" xlink:href="#av"/><use transform="matrix(0.0987654320987654,0,0,0.0987654320987654,88.88888888888886,0)" xlink:href="#aB"/></g><path fill="#333" d="M99-251c64 0 84 50 84 122C183-37 130 33 47-8c-14-7-20-23-25-40l30-5c6 39 69 39 84 7 9-19 16-44 16-74-10 22-31 35-62 35-49 0-73-33-73-83 0-54 28-83 82-83zm-1 141c31-1 51-18 51-49 0-36-14-67-51-67-34 0-49 23-49 58 0 34 15 58 49 58" id="bl"/><g id="H"><use transform="matrix(0.0987654320987654,0,0,0.0987654320987654,0,0)" xlink:href="#aG"/><use transform="matrix(0.0987654320987654,0,0,0.0987654320987654,19.753086419753078,0)" xlink:href="#aF"/><use transform="matrix(0.0987654320987654,0,0,0.0987654320987654,29.62962962962962,0)" xlink:href="#bl"/><use transform="matrix(0.0987654320987654,0,0,0.0987654320987654,49.382716049382694,0)" xlink:href="#aH"/></g><path fill="#333" d="M64 0c3-98 48-159 88-221H18v-27h164v26C143-157 98-101 97 0H64" id="bm"/><g id="I"><use transform="matrix(0.0987654320987654,0,0,0.0987654320987654,0,0)" xlink:href="#aR"/><use transform="matrix(0.0987654320987654,0,0,0.0987654320987654,19.753086419753078,0)" xlink:href="#aF"/><use transform="matrix(0.0987654320987654,0,0,0.0987654320987654,29.62962962962962,0)" xlink:href="#aR"/><use transform="matrix(0.0987654320987654,0,0,0.0987654320987654,49.382716049382694,0)" xlink:href="#aH"/><use transform="matrix(0.0987654320987654,0,0,0.0987654320987654,69.13580246913577,0)" xlink:href="#bm"/></g><g id="J"><use transform="matrix(0.0987654320987654,0,0,0.0987654320987654,0,0)" xlink:href="#aR"/><use transform="matrix(0.0987654320987654,0,0,0.0987654320987654,19.753086419753078,0)" xlink:href="#aF"/><use transform="matrix(0.0987654320987654,0,0,0.0987654320987654,29.62962962962962,0)" xlink:href="#aR"/><use transform="matrix(0.0987654320987654,0,0,0.0987654320987654,49.382716049382694,0)" xlink:href="#aH"/><use transform="matrix(0.0987654320987654,0,0,0.0987654320987654,69.13580246913577,0)" xlink:href="#bm"/></g><g id="K"><use transform="matrix(0.0987654320987654,0,0,0.0987654320987654,0,0)" xlink:href="#aV"/><use transform="matrix(0.0987654320987654,0,0,0.0987654320987654,19.753086419753078,0)" xlink:href="#aV"/><use transform="matrix(0.0987654320987654,0,0,0.0987654320987654,39.506172839506156,0)" xlink:href="#aZ"/></g><g id="L"><use transform="matrix(0.0987654320987654,0,0,0.0987654320987654,0,0)" xlink:href="#bk"/><use transform="matrix(0.0987654320987654,0,0,0.0987654320987654,19.753086419753078,0)" xlink:href="#bc"/></g><g id="M"><use transform="matrix(0.10493827160493824,0,0,0.10493827160493824,0,0)" xlink:href="#at"/><use transform="matrix(0.10493827160493824,0,0,0.10493827160493824,25.185185185185176,0)" xlink:href="#au"/><use transform="matrix(0.10493827160493824,0,0,0.10493827160493824,46.17283950617282,0)" xlink:href="#av"/><use transform="matrix(0.10493827160493824,0,0,0.10493827160493824,56.66666666666665,0)" xlink:href="#aw"/><use transform="matrix(0.10493827160493824,0,0,0.10493827160493824,77.65432098765429,0)" xlink:href="#ax"/></g><g id="N"><use transform="matrix(0.10493827160493824,0,0,0.10493827160493824,0,0)" xlink:href="#ay"/><use transform="matrix(0.10493827160493824,0,0,0.10493827160493824,20.987654320987648,0)" xlink:href="#au"/><use transform="matrix(0.10493827160493824,0,0,0.10493827160493824,41.975308641975296,0)" xlink:href="#az"/><use transform="matrix(0.10493827160493824,0,0,0.10493827160493824,62.96296296296294,0)" xlink:href="#aA"/><use transform="matrix(0.10493827160493824,0,0,0.10493827160493824,83.95061728395059,0)" xlink:href="#av"/><use transform="matrix(0.10493827160493824,0,0,0.10493827160493824,94.44444444444441,0)" xlink:href="#aB"/></g><g id="O"><use transform="matrix(0.10493827160493824,0,0,0.10493827160493824,0,0)" xlink:href="#aC"/><use transform="matrix(0.10493827160493824,0,0,0.10493827160493824,22.03703703703703,0)" xlink:href="#aD"/></g><path fill="#333" d="M134-131c28 9 52 24 51 62-1 50-34 73-85 73S17-19 16-69c0-36 21-54 49-61-75-25-45-126 34-121 46 3 78 18 79 63 0 33-17 51-44 57zm-34-11c31 1 46-15 46-44 0-28-17-43-47-42-29 0-46 13-45 42 1 28 16 44 46 44zm1 122c35 0 51-18 51-52 0-30-18-46-53-46-33 0-51 17-51 47 0 34 19 51 53 51" id="bn"/><g id="P"><use transform="matrix(0.10493827160493824,0,0,0.10493827160493824,0,0)" xlink:href="#aG"/><use transform="matrix(0.10493827160493824,0,0,0.10493827160493824,20.987654320987648,0)" xlink:href="#aF"/><use transform="matrix(0.10493827160493824,0,0,0.10493827160493824,31.48148148148147,0)" xlink:href="#bn"/><use transform="matrix(0.10493827160493824,0,0,0.10493827160493824,52.469135802469125,0)" xlink:href="#aH"/></g><g id="Q"><use transform="matrix(0.10493827160493824,0,0,0.10493827160493824,0,0)" xlink:href="#aI"/><use transform="matrix(0.10493827160493824,0,0,0.10493827160493824,29.382716049382708,0)" xlink:href="#aJ"/><use transform="matrix(0.10493827160493824,0,0,0.10493827160493824,37.67283950617283,0)" xlink:href="#az"/><use transform="matrix(0.10493827160493824,0,0,0.10493827160493824,58.66049382716047,0)" xlink:href="#aJ"/></g><g id="R"><use transform="matrix(0.10493827160493824,0,0,0.10493827160493824,0,0)" xlink:href="#aK"/><use transform="matrix(0.10493827160493824,0,0,0.10493827160493824,10.493827160493824,0)" xlink:href="#aL"/><use transform="matrix(0.10493827160493824,0,0,0.10493827160493824,41.87037037037036,0)" xlink:href="#aM"/><use transform="matrix(0.10493827160493824,0,0,0.10493827160493824,62.85802469135802,0)" xlink:href="#aN"/><use transform="matrix(0.10493827160493824,0,0,0.10493827160493824,83.84567901234566,0)" xlink:href="#aO"/><use transform="matrix(0.10493827160493824,0,0,0.10493827160493824,96.3333333333333,0)" xlink:href="#aJ"/><use transform="matrix(0.10493827160493824,0,0,0.10493827160493824,104.62345679012343,0)" xlink:href="#av"/><use transform="matrix(0.10493827160493824,0,0,0.10493827160493824,115.11728395061725,0)" xlink:href="#aP"/><use transform="matrix(0.10493827160493824,0,0,0.10493827160493824,134.00617283950612,0)" xlink:href="#aQ"/></g><g id="S"><use transform="matrix(0.10493827160493824,0,0,0.10493827160493824,0,0)" xlink:href="#aR"/><use transform="matrix(0.10493827160493824,0,0,0.10493827160493824,20.987654320987648,0)" xlink:href="#aF"/><use transform="matrix(0.10493827160493824,0,0,0.10493827160493824,31.48148148148147,0)" xlink:href="#bk"/><use transform="matrix(0.10493827160493824,0,0,0.10493827160493824,52.469135802469125,0)" xlink:href="#aR"/></g><g id="T"><use transform="matrix(0.10493827160493824,0,0,0.10493827160493824,0,0)" xlink:href="#aK"/><use transform="matrix(0.10493827160493824,0,0,0.10493827160493824,10.493827160493824,0)" xlink:href="#az"/><use transform="matrix(0.10493827160493824,0,0,0.10493827160493824,31.48148148148147,0)" xlink:href="#aT"/><use transform="matrix(0.10493827160493824,0,0,0.10493827160493824,41.975308641975296,0)" xlink:href="#aU"/><use transform="matrix(0.10493827160493824,0,0,0.10493827160493824,62.96296296296294,0)" xlink:href="#aO"/><use transform="matrix(0.10493827160493824,0,0,0.10493827160493824,75.45061728395059,0)" xlink:href="#aL"/><use transform="matrix(0.10493827160493824,0,0,0.10493827160493824,106.82716049382712,0)" xlink:href="#aw"/><use transform="matrix(0.10493827160493824,0,0,0.10493827160493824,127.81481481481477,0)" xlink:href="#av"/><use transform="matrix(0.10493827160493824,0,0,0.10493827160493824,138.3086419753086,0)" xlink:href="#aJ"/><use transform="matrix(0.10493827160493824,0,0,0.10493827160493824,146.59876543209873,0)" xlink:href="#aU"/><use transform="matrix(0.10493827160493824,0,0,0.10493827160493824,167.58641975308637,0)" xlink:href="#az"/></g><g id="U"><use transform="matrix(0.10493827160493824,0,0,0.10493827160493824,0,0)" xlink:href="#aI"/><use transform="matrix(0.10493827160493824,0,0,0.10493827160493824,29.382716049382708,0)" xlink:href="#aw"/><use transform="matrix(0.10493827160493824,0,0,0.10493827160493824,50.37037037037035,0)" xlink:href="#aJ"/><use transform="matrix(0.10493827160493824,0,0,0.10493827160493824,58.66049382716047,0)" xlink:href="#az"/><use transform="matrix(0.10493827160493824,0,0,0.10493827160493824,79.64814814814812,0)" xlink:href="#aQ"/></g><g id="V"><use transform="matrix(0.10493827160493824,0,0,0.10493827160493824,0,0)" xlink:href="#aR"/><use transform="matrix(0.10493827160493824,0,0,0.10493827160493824,20.987654320987648,0)" xlink:href="#aF"/><use transform="matrix(0.10493827160493824,0,0,0.10493827160493824,31.48148148148147,0)" xlink:href="#aR"/><use transform="matrix(0.10493827160493824,0,0,0.10493827160493824,52.469135802469125,0)" xlink:href="#aE"/></g><g id="W"><use transform="matrix(0.10493827160493824,0,0,0.10493827160493824,0,0)" xlink:href="#aW"/><use transform="matrix(0.10493827160493824,0,0,0.10493827160493824,12.592592592592588,0)" xlink:href="#aX"/><use transform="matrix(0.10493827160493824,0,0,0.10493827160493824,19.72839506172839,0)" xlink:href="#ba"/><use transform="matrix(0.10493827160493824,0,0,0.10493827160493824,38.61728395061727,0)" xlink:href="#au"/><use transform="matrix(0.10493827160493824,0,0,0.10493827160493824,59.60493827160492,0)" xlink:href="#aO"/><use transform="matrix(0.10493827160493824,0,0,0.10493827160493824,72.09259259259257,0)" xlink:href="#aY"/><use transform="matrix(0.10493827160493824,0,0,0.10493827160493824,90.98148148148145,0)" xlink:href="#aJ"/><use transform="matrix(0.10493827160493824,0,0,0.10493827160493824,99.27160493827158,0)" xlink:href="#bb"/><use transform="matrix(0.10493827160493824,0,0,0.10493827160493824,118.16049382716045,0)" xlink:href="#aU"/><use transform="matrix(0.10493827160493824,0,0,0.10493827160493824,139.14814814814812,0)" xlink:href="#ax"/><use transform="matrix(0.10493827160493824,0,0,0.10493827160493824,147.43827160493825,0)" xlink:href="#aU"/><use transform="matrix(0.10493827160493824,0,0,0.10493827160493824,168.4259259259259,0)" xlink:href="#aO"/><use transform="matrix(0.10493827160493824,0,0,0.10493827160493824,180.91358024691354,0)" xlink:href="#aX"/><use transform="matrix(0.10493827160493824,0,0,0.10493827160493824,188.04938271604934,0)" xlink:href="#aQ"/></g><g id="X"><use transform="matrix(0.10493827160493824,0,0,0.10493827160493824,0,0)" xlink:href="#aE"/><use transform="matrix(0.10493827160493824,0,0,0.10493827160493824,20.987654320987648,0)" xlink:href="#aZ"/></g><g id="Y"><use transform="matrix(0.10493827160493824,0,0,0.10493827160493824,0,0)" xlink:href="#aX"/><use transform="matrix(0.10493827160493824,0,0,0.10493827160493824,7.1358024691358,0)" xlink:href="#ba"/><use transform="matrix(0.10493827160493824,0,0,0.10493827160493824,26.024691358024683,0)" xlink:href="#aJ"/><use transform="matrix(0.10493827160493824,0,0,0.10493827160493824,34.3148148148148,0)" xlink:href="#aO"/><use transform="matrix(0.10493827160493824,0,0,0.10493827160493824,46.802469135802454,0)" xlink:href="#aA"/><use transform="matrix(0.10493827160493824,0,0,0.10493827160493824,67.7901234567901,0)" xlink:href="#aJ"/><use transform="matrix(0.10493827160493824,0,0,0.10493827160493824,76.08024691358023,0)" xlink:href="#az"/><use transform="matrix(0.10493827160493824,0,0,0.10493827160493824,97.06790123456787,0)" xlink:href="#aJ"/><use transform="matrix(0.10493827160493824,0,0,0.10493827160493824,105.358024691358,0)" xlink:href="#bb"/><use transform="matrix(0.10493827160493824,0,0,0.10493827160493824,124.24691358024687,0)" xlink:href="#aw"/><use transform="matrix(0.10493827160493824,0,0,0.10493827160493824,145.23456790123453,0)" xlink:href="#aX"/><use transform="matrix(0.10493827160493824,0,0,0.10493827160493824,152.37037037037032,0)" xlink:href="#aQ"/></g><g id="Z"><use transform="matrix(0.10493827160493824,0,0,0.10493827160493824,0,0)" xlink:href="#aV"/><use transform="matrix(0.10493827160493824,0,0,0.10493827160493824,20.987654320987648,0)" xlink:href="#aG"/><use transform="matrix(0.10493827160493824,0,0,0.10493827160493824,41.975308641975296,0)" xlink:href="#bc"/></g><path fill="#fff" d="M143 4C61 4 22-44 18-125c-5-107 100-154 193-111 17 8 29 25 37 43l-32 9c-13-25-37-40-76-40-61 0-88 39-88 99 0 61 29 100 91 101 35 0 62-11 79-27v-45h-74v-28h105v86C228-13 192 4 143 4" id="bo"/><path fill="#fff" d="M24-231v-30h32v30H24zM24 0v-190h32V0H24" id="bp"/><path fill="#fff" d="M117-194c89-4 53 116 60 194h-32v-121c0-31-8-49-39-48C34-167 62-67 57 0H25l-1-190h30c1 10-1 24 2 32 11-22 29-35 61-36" id="bq"/><g id="aa"><use transform="matrix(0.1419753086419752,0,0,0.1419753086419752,0,0)" xlink:href="#bo"/><use transform="matrix(0.1419753086419752,0,0,0.1419753086419752,39.75308641975305,0)" xlink:href="#bp"/><use transform="matrix(0.1419753086419752,0,0,0.1419753086419752,50.96913580246909,0)" xlink:href="#bq"/><use transform="matrix(0.1419753086419752,0,0,0.1419753086419752,79.36419753086413,0)" xlink:href="#bp"/></g><path fill="#fff" d="M33 0v-248h34V0H33" id="br"/><path fill="#fff" d="M210-169c-67 3-38 105-44 169h-31v-121c0-29-5-50-35-48C34-165 62-65 56 0H25l-1-190h30c1 10-1 24 2 32 10-44 99-50 107 0 11-21 27-35 58-36 85-2 47 119 55 194h-31v-121c0-29-5-49-35-48" id="bs"/><path fill="#fff" d="M115-194c55 1 70 41 70 98S169 2 115 4C84 4 66-9 55-30l1 105H24l-1-265h31l2 30c10-21 28-34 59-34zm-8 174c40 0 45-34 45-75s-6-73-45-74c-42 0-51 32-51 76 0 43 10 73 51 73" id="bt"/><path fill="#fff" d="M84 4C-5 8 30-112 23-190h32v120c0 31 7 50 39 49 72-2 45-101 50-169h31l1 190h-30c-1-10 1-25-2-33-11 22-28 36-60 37" id="bu"/><path fill="#fff" d="M114-163C36-179 61-72 57 0H25l-1-190h30c1 12-1 29 2 39 6-27 23-49 58-41v29" id="bv"/><path fill="#fff" d="M59-47c-2 24 18 29 38 22v24C64 9 27 4 27-40v-127H5v-23h24l9-43h21v43h35v23H59v120" id="bw"/><path fill="#fff" d="M179-190L93 31C79 59 56 82 12 73V49c39 6 53-20 64-50L1-190h34L92-34l54-156h33" id="bx"/><path fill="#fff" d="M33-154v-36h34v36H33zM33 0v-36h34V0H33" id="by"/><g id="ab"><use transform="matrix(0.1419753086419752,0,0,0.1419753086419752,0,0)" xlink:href="#br"/><use transform="matrix(0.1419753086419752,0,0,0.1419753086419752,14.19753086419752,0)" xlink:href="#bs"/><use transform="matrix(0.1419753086419752,0,0,0.1419753086419752,56.6481481481481,0)" xlink:href="#bt"/><use transform="matrix(0.1419753086419752,0,0,0.1419753086419752,85.04320987654314,0)" xlink:href="#bu"/><use transform="matrix(0.1419753086419752,0,0,0.1419753086419752,113.43827160493818,0)" xlink:href="#bv"/><use transform="matrix(0.1419753086419752,0,0,0.1419753086419752,130.33333333333323,0)" xlink:href="#bp"/><use transform="matrix(0.1419753086419752,0,0,0.1419753086419752,141.54938271604928,0)" xlink:href="#bw"/><use transform="matrix(0.1419753086419752,0,0,0.1419753086419752,155.74691358024677,0)" xlink:href="#bx"/><use transform="matrix(0.1419753086419752,0,0,0.1419753086419752,181.30246913580234,0)" xlink:href="#by"/></g><path fill="#fff" d="M101-251c68 0 85 55 85 127S166 4 100 4C33 4 14-52 14-124c0-73 17-127 87-127zm-1 229c47 0 54-49 54-102s-4-102-53-102c-51 0-55 48-55 102 0 53 5 102 54 102" id="bz"/><path fill="#fff" d="M33 0v-38h34V0H33" id="bA"/><g id="ac"><use transform="matrix(0.1419753086419752,0,0,0.1419753086419752,0,0)" xlink:href="#bz"/><use transform="matrix(0.1419753086419752,0,0,0.1419753086419752,28.39506172839504,0)" xlink:href="#bA"/><use transform="matrix(0.1419753086419752,0,0,0.1419753086419752,42.59259259259256,0)" xlink:href="#bz"/><use transform="matrix(0.1419753086419752,0,0,0.1419753086419752,70.9876543209876,0)" xlink:href="#bz"/></g><path fill="#fff" d="M39-94c74 12-11 154 75 146v23c-44 4-70-10-70-52C44-23 55-84 6-82v-22c81 4-7-162 84-157h24v23c-82-15-2 131-75 144" id="bB"/><path fill="#fff" d="M47-170H22l-4-78h33" id="bC"/><path fill="#fff" d="M135-143c-3-34-86-38-87 0 15 53 115 12 119 90S17 21 10-45l28-5c4 36 97 45 98 0-10-56-113-15-118-90-4-57 82-63 122-42 12 7 21 19 24 35" id="bD"/><path fill="#fff" d="M100-194c63 0 86 42 84 106H49c0 40 14 67 53 68 26 1 43-12 49-29l28 8c-11 28-37 45-77 45C44 4 14-33 15-96c1-61 26-98 85-98zm52 81c6-60-76-77-97-28-3 7-6 17-6 28h103" id="bE"/><path fill="#fff" d="M100-194c62-1 85 37 85 99 1 63-27 99-86 99S16-35 15-95c0-66 28-99 85-99zM99-20c44 1 53-31 53-75 0-43-8-75-51-75s-53 32-53 75 10 74 51 75" id="bF"/><path fill="#fff" d="M141-36C126-15 110 5 73 4 37 3 15-17 15-53c-1-64 63-63 125-63 3-35-9-54-41-54-24 1-41 7-42 31l-33-3c5-37 33-52 76-52 45 0 72 20 72 64v82c-1 20 7 32 28 27v20c-31 9-61-2-59-35zM48-53c0 20 12 33 32 33 41-3 63-29 60-74-43 2-92-5-92 41" id="bG"/><g id="ad"><use transform="matrix(0.1419753086419752,0,0,0.1419753086419752,0,0)" xlink:href="#bB"/><use transform="matrix(0.1419753086419752,0,0,0.1419753086419752,17.037037037037024,0)" xlink:href="#bC"/><use transform="matrix(0.1419753086419752,0,0,0.1419753086419752,26.691358024691336,0)" xlink:href="#bD"/><use transform="matrix(0.1419753086419752,0,0,0.1419753086419752,52.24691358024687,0)" xlink:href="#bE"/><use transform="matrix(0.1419753086419752,0,0,0.1419753086419752,80.6419753086419,0)" xlink:href="#bw"/><use transform="matrix(0.1419753086419752,0,0,0.1419753086419752,94.83950617283942,0)" xlink:href="#bF"/><use transform="matrix(0.1419753086419752,0,0,0.1419753086419752,123.23456790123444,0)" xlink:href="#bD"/><use transform="matrix(0.1419753086419752,0,0,0.1419753086419752,148.79012345678998,0)" xlink:href="#bG"/><use transform="matrix(0.1419753086419752,0,0,0.1419753086419752,177.185185185185,0)" xlink:href="#bC"/><use transform="matrix(0.1419753086419752,0,0,0.1419753086419752,186.83950617283932,0)" xlink:href="#by"/></g><path fill="#fff" d="M126-127c33 6 58 20 58 59 0 88-139 92-164 29-3-8-5-16-6-25l32-3c6 27 21 44 54 44 32 0 52-15 52-46 0-38-36-46-79-43v-28c39 1 72-4 72-42 0-27-17-43-46-43-28 0-47 15-49 41l-32-3c6-42 35-63 81-64 48-1 79 21 79 65 0 36-21 52-52 59" id="bH"/><path fill="#fff" d="M54-142c48-35 137-8 131 61C196 18 31 33 14-55l32-4c7 23 22 37 52 37 35-1 51-22 54-58 4-55-73-65-99-34H22l8-134h141v27H59" id="bI"/><path fill="#fff" d="M76-40C78 24 84 88 6 75V52C86 64 9-79 80-94c-40-6-34-59-34-106 1-29-11-41-40-38v-23c44-4 70 10 70 52 0 47-12 108 38 105v22c-26 1-39 14-38 42" id="bJ"/><g id="ae"><use transform="matrix(0.1419753086419752,0,0,0.1419753086419752,0,0)" xlink:href="#bH"/><use transform="matrix(0.1419753086419752,0,0,0.1419753086419752,28.39506172839504,0)" xlink:href="#bI"/><use transform="matrix(0.1419753086419752,0,0,0.1419753086419752,56.79012345679008,0)" xlink:href="#bJ"/></g><path fill="#fff" d="M108 0H70L1-190h34L89-25l56-165h34" id="bK"/><path fill="#fff" d="M96-169c-40 0-48 33-48 73s9 75 48 75c24 0 41-14 43-38l32 2c-6 37-31 61-74 61-59 0-76-41-82-99-10-93 101-131 147-64 4 7 5 14 7 22l-32 3c-4-21-16-35-41-35" id="bL"/><path fill="#fff" d="M24 0v-261h32V0H24" id="bM"/><g id="af"><use transform="matrix(0.1419753086419752,0,0,0.1419753086419752,0,0)" xlink:href="#bB"/><use transform="matrix(0.1419753086419752,0,0,0.1419753086419752,17.037037037037024,0)" xlink:href="#bC"/><use transform="matrix(0.1419753086419752,0,0,0.1419753086419752,26.691358024691336,0)" xlink:href="#bK"/><use transform="matrix(0.1419753086419752,0,0,0.1419753086419752,52.24691358024687,0)" xlink:href="#bE"/><use transform="matrix(0.1419753086419752,0,0,0.1419753086419752,80.6419753086419,0)" xlink:href="#bv"/><use transform="matrix(0.1419753086419752,0,0,0.1419753086419752,97.53703703703695,0)" xlink:href="#bD"/><use transform="matrix(0.1419753086419752,0,0,0.1419753086419752,123.0925925925925,0)" xlink:href="#bp"/><use transform="matrix(0.1419753086419752,0,0,0.1419753086419752,134.30864197530855,0)" xlink:href="#bL"/><use transform="matrix(0.1419753086419752,0,0,0.1419753086419752,159.8641975308641,0)" xlink:href="#bF"/><use transform="matrix(0.1419753086419752,0,0,0.1419753086419752,188.25925925925912,0)" xlink:href="#bM"/><use transform="matrix(0.1419753086419752,0,0,0.1419753086419752,199.47530864197518,0)" xlink:href="#bF"/><use transform="matrix(0.1419753086419752,0,0,0.1419753086419752,227.8703703703702,0)" xlink:href="#bv"/><use transform="matrix(0.1419753086419752,0,0,0.1419753086419752,244.76543209876525,0)" xlink:href="#bC"/><use transform="matrix(0.1419753086419752,0,0,0.1419753086419752,254.41975308641955,0)" xlink:href="#by"/></g><g id="ag"><use transform="matrix(0.1419753086419752,0,0,0.1419753086419752,0,0)" xlink:href="#bH"/><use transform="matrix(0.1419753086419752,0,0,0.1419753086419752,28.39506172839504,0)" xlink:href="#bH"/><use transform="matrix(0.1419753086419752,0,0,0.1419753086419752,56.79012345679008,0)" xlink:href="#bJ"/></g><path fill="#fff" d="M177-190C167-65 218 103 67 71c-23-6-38-20-44-43l32-5c15 47 100 32 89-28v-30C133-14 115 1 83 1 29 1 15-40 15-95c0-56 16-97 71-98 29-1 48 16 59 35 1-10 0-23 2-32h30zM94-22c36 0 50-32 50-73 0-42-14-75-50-75-39 0-46 34-46 75s6 73 46 73" id="bN"/><g id="ah"><use transform="matrix(0.1419753086419752,0,0,0.1419753086419752,0,0)" xlink:href="#bB"/><use transform="matrix(0.1419753086419752,0,0,0.1419753086419752,17.037037037037024,0)" xlink:href="#bC"/><use transform="matrix(0.1419753086419752,0,0,0.1419753086419752,26.691358024691336,0)" xlink:href="#bK"/><use transform="matrix(0.1419753086419752,0,0,0.1419753086419752,52.24691358024687,0)" xlink:href="#bp"/><use transform="matrix(0.1419753086419752,0,0,0.1419753086419752,63.462962962962905,0)" xlink:href="#bv"/><use transform="matrix(0.1419753086419752,0,0,0.1419753086419752,80.35802469135795,0)" xlink:href="#bN"/><use transform="matrix(0.1419753086419752,0,0,0.1419753086419752,108.75308641975299,0)" xlink:href="#bp"/><use transform="matrix(0.1419753086419752,0,0,0.1419753086419752,119.96913580246903,0)" xlink:href="#bq"/><use transform="matrix(0.1419753086419752,0,0,0.1419753086419752,148.36419753086406,0)" xlink:href="#bp"/><use transform="matrix(0.1419753086419752,0,0,0.1419753086419752,159.5802469135801,0)" xlink:href="#bL"/><use transform="matrix(0.1419753086419752,0,0,0.1419753086419752,185.13580246913565,0)" xlink:href="#bG"/><use transform="matrix(0.1419753086419752,0,0,0.1419753086419752,213.5308641975307,0)" xlink:href="#bC"/><use transform="matrix(0.1419753086419752,0,0,0.1419753086419752,223.185185185185,0)" xlink:href="#by"/></g><path fill="#fff" d="M27 0v-27h64v-190l-56 39v-29l58-41h29v221h61V0H27" id="bO"/><g id="ai"><use transform="matrix(0.1419753086419752,0,0,0.1419753086419752,0,0)" xlink:href="#bO"/><use transform="matrix(0.1419753086419752,0,0,0.1419753086419752,28.39506172839504,0)" xlink:href="#bJ"/></g><path fill="#333" d="M185-189c-5-48-123-54-124 2 14 75 158 14 163 119 3 78-121 87-175 55-17-10-28-26-33-46l33-7c5 56 141 63 141-1 0-78-155-14-162-118-5-82 145-84 179-34 5 7 8 16 11 25" id="bP"/><g id="aj"><use transform="matrix(0.0987654320987654,0,0,0.0987654320987654,0,0)" xlink:href="#bP"/><use transform="matrix(0.0987654320987654,0,0,0.0987654320987654,23.703703703703695,0)" xlink:href="#au"/><use transform="matrix(0.0987654320987654,0,0,0.0987654320987654,43.45679012345677,0)" xlink:href="#aM"/><use transform="matrix(0.0987654320987654,0,0,0.0987654320987654,63.209876543209845,0)" xlink:href="#aw"/><use transform="matrix(0.0987654320987654,0,0,0.0987654320987654,82.96296296296292,0)" xlink:href="#ax"/></g><g id="ak"><use transform="matrix(0.0987654320987654,0,0,0.0987654320987654,0,0)" xlink:href="#aS"/><use transform="matrix(0.0987654320987654,0,0,0.0987654320987654,19.753086419753078,0)" xlink:href="#aF"/><use transform="matrix(0.0987654320987654,0,0,0.0987654320987654,29.62962962962962,0)" xlink:href="#aR"/><use transform="matrix(0.0987654320987654,0,0,0.0987654320987654,49.382716049382694,0)" xlink:href="#aH"/></g><g id="al"><use transform="matrix(0.0987654320987654,0,0,0.0987654320987654,0,0)" xlink:href="#aR"/><use transform="matrix(0.0987654320987654,0,0,0.0987654320987654,19.753086419753078,0)" xlink:href="#aF"/><use transform="matrix(0.0987654320987654,0,0,0.0987654320987654,29.62962962962962,0)" xlink:href="#aH"/></g><g id="am"><use transform="matrix(0.0987654320987654,0,0,0.0987654320987654,0,0)" xlink:href="#aR"/><use transform="matrix(0.0987654320987654,0,0,0.0987654320987654,19.753086419753078,0)" xlink:href="#aF"/><use transform="matrix(0.0987654320987654,0,0,0.0987654320987654,29.62962962962962,0)" xlink:href="#aH"/></g><g id="an"><use transform="matrix(0.0987654320987654,0,0,0.0987654320987654,0,0)" xlink:href="#bk"/><use transform="matrix(0.0987654320987654,0,0,0.0987654320987654,19.753086419753078,0)" xlink:href="#aZ"/></g><g id="ao"><use transform="matrix(0.0987654320987654,0,0,0.0987654320987654,0,0)" xlink:href="#bk"/><use transform="matrix(0.0987654320987654,0,0,0.0987654320987654,19.753086419753078,0)" xlink:href="#aF"/><use transform="matrix(0.0987654320987654,0,0,0.0987654320987654,29.62962962962962,0)" xlink:href="#bm"/><use transform="matrix(0.0987654320987654,0,0,0.0987654320987654,49.382716049382694,0)" xlink:href="#aR"/></g><g id="ap"><use transform="matrix(0.0987654320987654,0,0,0.0987654320987654,0,0)" xlink:href="#aR"/><use transform="matrix(0.0987654320987654,0,0,0.0987654320987654,19.753086419753078,0)" xlink:href="#aF"/><use transform="matrix(0.0987654320987654,0,0,0.0987654320987654,29.62962962962962,0)" xlink:href="#aR"/><use transform="matrix(0.0987654320987654,0,0,0.0987654320987654,49.382716049382694,0)" xlink:href="#aE"/><use transform="matrix(0.0987654320987654,0,0,0.0987654320987654,69.13580246913577,0)" xlink:href="#bm"/></g><g id="aq"><use transform="matrix(0.0987654320987654,0,0,0.0987654320987654,0,0)" xlink:href="#aV"/><use transform="matrix(0.0987654320987654,0,0,0.0987654320987654,19.753086419753078,0)" xlink:href="#aV"/><use transform="matrix(0.0987654320987654,0,0,0.0987654320987654,39.506172839506156,0)" xlink:href="#bc"/></g><g id="ar"><use transform="matrix(0.0987654320987654,0,0,0.0987654320987654,0,0)" xlink:href="#aS"/><use transform="matrix(0.0987654320987654,0,0,0.0987654320987654,19.753086419753078,0)" xlink:href="#aF"/><use transform="matrix(0.0987654320987654,0,0,0.0987654320987654,29.62962962962962,0)" xlink:href="#aS"/><use transform="matrix(0.0987654320987654,0,0,0.0987654320987654,49.382716049382694,0)" xlink:href="#aR"/></g><path fill="#fff" d="M101-251c82-7 93 87 43 132L82-64C71-53 59-42 53-27h129V0H18c2-99 128-94 128-182 0-28-16-43-45-43s-46 15-49 41l-32-3c6-41 34-60 81-64" id="bQ"/><g id="as"><use transform="matrix(0.1419753086419752,0,0,0.1419753086419752,0,0)" xlink:href="#bH"/><use transform="matrix(0.1419753086419752,0,0,0.1419753086419752,28.39506172839504,0)" xlink:href="#bQ"/><use transform="matrix(0.1419753086419752,0,0,0.1419753086419752,56.79012345679008,0)" xlink:href="#bJ"/></g></defs></g></svg>